<svg width="20" height="20" viewBox="0 0 20 20" fill="none" xmlns="http://www.w3.org/2000/svg">
<path fill-rule="evenodd" clip-rule="evenodd" d="M1.03418 1.00989L18.9681 18.9641L1.03418 1.00989Z" fill="white"/>
<path fill-rule="evenodd" clip-rule="evenodd" d="M18.9671 20C18.6928 19.9998 18.4298 19.8905 18.236 19.6962L0.302103 1.74196C-0.0777628 1.33383 -0.0665541 0.697842 0.327456 0.303385C0.721466 -0.0910713 1.35674 -0.102293 1.7644 0.278003L19.6983 18.2322C19.9938 18.5284 20.0821 18.9736 19.9222 19.3604C19.7622 19.7473 19.3853 19.9996 18.9671 20Z" fill="white"/>
<path fill-rule="evenodd" clip-rule="evenodd" d="M1.03418 18.9641L18.9681 1.00989L1.03418 18.9641Z" fill="white"/>
<path fill-rule="evenodd" clip-rule="evenodd" d="M1.03377 20C0.615574 19.9996 0.238722 19.7473 0.0787368 19.3604C-0.0812488 18.9736 0.00709332 18.5284 0.302616 18.2322L18.2365 0.278003C18.6442 -0.102293 19.2794 -0.0910713 19.6734 0.303385C20.0674 0.697842 20.0787 1.33383 19.6988 1.74196L1.76492 19.6962C1.57107 19.8905 1.30808 19.9998 1.03377 20Z" fill="white"/>
</svg>
