<svg width="38" height="21" viewBox="0 0 38 21" fill="none" xmlns="http://www.w3.org/2000/svg">
<path id="vk_red copy" fill-rule="evenodd" clip-rule="evenodd" d="M20.9402 20.0792C20.9402 20.0792 21.6089 20.0097 21.9505 19.6605C22.2659 19.3387 22.2554 18.7361 22.2554 18.7361C22.2554 18.7361 22.2122 15.9144 23.5915 15.4981C24.9511 15.0881 26.6981 18.2254 28.5484 19.4319C29.9487 20.3451 31.0125 20.1451 31.0125 20.1451L35.9617 20.0792C35.9617 20.0792 38.5501 19.9277 37.3226 17.9956C37.2218 17.8378 36.6068 16.5654 33.6428 13.9525C30.5388 11.2177 30.955 11.66 34.6936 6.92858C36.9693 4.04845 37.8801 2.28907 37.5948 1.53611C37.3239 0.817941 35.6502 1.00804 35.6502 1.00804L30.0769 1.04035C30.0769 1.04035 29.6634 0.986921 29.3572 1.16087C29.0588 1.33109 28.8664 1.7287 28.8664 1.7287C28.8664 1.7287 27.9831 3.95775 26.808 5.85381C24.3269 9.85467 23.3337 10.0659 22.928 9.8174C21.9845 9.23839 22.2201 7.49267 22.2201 6.25141C22.2201 2.37356 22.8403 0.757058 21.0148 0.338334C20.409 0.200416 19.9627 0.108471 18.4133 0.0935604C16.4256 0.0736804 14.7427 0.0985305 13.7901 0.542105C13.1554 0.836578 12.666 1.49386 12.9643 1.53114C13.3321 1.57835 14.1669 1.74485 14.6092 2.3164C15.1798 3.05445 15.1602 4.71071 15.1602 4.71071C15.1602 4.71071 15.4886 9.27443 14.3933 9.84225C13.6422 10.2299 12.6123 9.43719 10.3995 5.8066C9.26623 3.94781 8.41041 1.89271 8.41041 1.89271C8.41041 1.89271 8.24552 1.50877 7.95109 1.30252C7.59384 1.05402 7.09527 0.974496 7.09527 0.974496L1.79936 1.00804C1.79936 1.00804 1.00504 1.02917 0.713225 1.35719C0.452813 1.64918 0.692287 2.25303 0.692287 2.25303C0.692287 2.25303 4.83793 11.4625 9.53188 16.1032C13.8372 20.3588 18.7248 20.0792 18.7248 20.0792H20.9402Z" fill="black"/>
</svg>
