<svg width="28" height="28" viewBox="0 0 28 28" fill="none" xmlns="http://www.w3.org/2000/svg">
<path fill-rule="evenodd" clip-rule="evenodd" d="M19.9781 5.9958C19.9781 6.97059 20.7701 7.76087 21.7471 7.76087C22.7241 7.76087 23.5161 6.97059 23.5161 5.9958C23.5161 5.02096 22.7241 4.23068 21.7471 4.23068C20.7701 4.23068 19.9781 5.02096 19.9781 5.9958ZM8.9635 13.8474C8.9635 11.1395 11.1636 8.94438 13.8775 8.94438C16.5913 8.94438 18.7914 11.1395 18.7914 13.8474C18.7914 16.5553 16.5913 18.7504 13.8775 18.7504C11.1636 18.7504 8.9635 16.5553 8.9635 13.8474ZM13.8781 21.4002C9.69728 21.4002 6.30806 18.0184 6.30806 13.8468C6.30806 9.67526 9.69728 6.29355 13.8781 6.29355C18.059 6.29355 21.4483 9.67526 21.4483 13.8468C21.4483 18.0184 18.059 21.4002 13.8781 21.4002ZM25.8452 1.95113C25.252 1.35792 24.6873 0.990535 23.896 0.68304C23.2986 0.450841 22.401 0.174715 20.7481 0.099295C18.9606 0.0177501 18.4244 0.000488281 13.8979 0.000488281C9.37142 0.000488281 8.83525 0.0177501 7.04763 0.099295C5.39483 0.174715 4.49722 0.450841 3.89986 0.68304C3.10854 0.990535 2.54386 1.35792 1.95064 1.95113C1.35743 2.54434 0.990047 3.10909 0.68249 3.90035C0.450353 4.49771 0.174226 5.39538 0.0988067 7.04818C0.0172618 8.83574 0 9.37191 0 13.8984C0 18.4249 0.0172618 18.961 0.0988067 20.7487C0.174226 22.4015 0.450353 23.2991 0.68249 23.8965C0.990047 24.6877 1.35743 25.2525 1.95064 25.8457C2.54386 26.4389 3.10854 26.8063 3.89986 27.1138C4.49722 27.3459 5.39483 27.6221 7.0477 27.6975C8.835 27.7791 9.37111 27.7964 13.8979 27.7964C18.4247 27.7964 18.9608 27.7791 20.7481 27.6975C22.401 27.6221 23.2986 27.3459 23.896 27.1138C24.6873 26.8063 25.252 26.4389 25.8452 25.8456C26.4384 25.2525 26.8058 24.6877 27.1133 23.8965C27.3455 23.2991 27.6216 22.4015 27.6971 20.7487C27.7786 18.961 27.7959 18.4249 27.7959 13.8984C27.7959 9.37191 27.7786 8.83574 27.6971 7.04818C27.6216 5.39538 27.3455 4.49771 27.1133 3.90035C26.8058 3.10909 26.4384 2.54434 25.8452 1.95113Z" fill="black"/>
</svg>
