<svg width="30" height="24" viewBox="0 0 30 24" fill="none" xmlns="http://www.w3.org/2000/svg">
<path id="twi_red copy" fill-rule="evenodd" clip-rule="evenodd" d="M0.598633 21.0803C3.26271 22.7408 6.42557 23.7079 9.82609 23.7079C20.899 23.7079 26.9534 14.7958 26.9534 7.06802C26.9534 6.81467 26.9475 6.56422 26.9358 6.31377C28.1123 5.48858 29.1333 4.45926 29.9387 3.28662C28.8605 3.75278 27.7001 4.06549 26.4825 4.20447C27.725 3.48496 28.6771 2.33548 29.1289 0.97175C27.9656 1.64059 26.6761 2.12702 25.3059 2.38905C24.2086 1.25405 22.6433 0.544678 20.9122 0.544678C17.588 0.544678 14.8917 3.16067 14.8917 6.38905C14.8917 6.84942 14.9459 7.29386 15.0486 7.72238C10.0461 7.47917 5.60845 5.15126 2.64217 1.61308C2.12432 2.47881 1.82652 3.48062 1.82652 4.55336C1.82652 6.58159 2.88863 8.3724 4.5038 9.42054C3.5165 9.39303 2.58936 9.1281 1.77664 8.68945C1.77664 8.71406 1.77664 8.73867 1.77664 8.76328C1.77664 11.595 3.85391 13.9605 6.60455 14.4976C6.10137 14.6323 5.56884 14.7017 5.02018 14.7017C4.63143 14.7017 4.25441 14.667 3.88766 14.5975C4.65197 16.9225 6.87594 18.6134 9.50922 18.6583C7.44954 20.2276 4.85735 21.1599 2.03483 21.1599C1.54925 21.1599 1.07101 21.1368 0.598633 21.0803Z" fill="black"/>
</svg>
