<svg width="17" height="28" viewBox="0 0 17 28" fill="none" xmlns="http://www.w3.org/2000/svg">
<path d="M8.78465 4.20467C10.4231 4.20467 11.7556 5.53714 11.7556 7.17558C11.7556 8.80908 10.4231 10.1416 8.78465 10.1416C7.14621 10.1416 5.81374 8.80908 5.81374 7.17558C5.81374 5.53714 7.14621 4.20467 8.78465 4.20467ZM8.78465 14.3462C12.7426 14.3462 15.9602 11.1286 15.9602 7.17558C15.9602 3.21766 12.7426 0 8.78465 0C4.82673 0 1.614 3.21766 1.614 7.17558C1.614 11.1286 4.82673 14.3462 8.78465 14.3462ZM11.6865 20.1992C13.1472 19.8636 14.5537 19.2862 15.8517 18.4719C16.8337 17.8551 17.1298 16.5571 16.513 15.5751C15.8911 14.588 14.5981 14.2919 13.6111 14.9138C10.6748 16.7595 6.89452 16.7595 3.95322 14.9138C2.97115 14.2919 1.67322 14.588 1.05634 15.5751C0.439458 16.5571 0.735561 17.8551 1.71764 18.4719C3.01556 19.2862 4.42205 19.8636 5.88283 20.1992L1.87063 24.2065C1.0514 25.0257 1.0514 26.3582 1.87063 27.1774C2.28517 27.587 2.81816 27.7943 3.35608 27.7943C3.894 27.7943 4.43192 27.587 4.84647 27.1774L8.78465 23.2392L12.7278 27.1774C13.547 28.0015 14.8745 28.0015 15.6987 27.1774C16.5179 26.3582 16.5179 25.0257 15.6987 24.2065L11.6865 20.1992Z" fill="black"/>
</svg>
