<svg width="535" height="75" viewBox="0 0 535 75" fill="none" xmlns="http://www.w3.org/2000/svg">
<path d="M220.338 1.80908V73.6183H276.223V66.2312H228.968V41.0918H270.749V33.712H228.968V9.19433H275.674V1.80908H220.338Z" fill="white"/>
<path d="M375.63 1.80908V73.6219H421.685V66.1277H384.266V1.80908H375.63Z" fill="white"/>
<path d="M447.395 1.80908H438.747V73.6147H447.395V1.80908Z" fill="white"/>
<path d="M87.1549 1.80908L53.8042 73.7689H62.6657L71.7497 54.7902H110.683L119.647 73.7689H128.94L95.5945 1.80908H87.1549ZM91.2668 10.8818L107.288 47.5048H75.1319L91.2668 10.8818Z" fill="white"/>
<path d="M326.013 38.4594H305.351V9.30144H326.125C338.535 9.30144 347.153 14.6416 347.153 23.4728C347.153 32.9195 337.552 38.4594 326.013 38.4594ZM355.59 73.67L340.863 43.2921C348.945 39.5804 355.94 32.5065 355.94 23.3603C355.94 17.5209 353.742 12.4876 350.006 9.0028C345.17 4.47507 336.223 1.80908 326.779 1.80908H296.675V73.67H305.351V45.7466H330.418L332.778 45.7366L346.246 73.67H355.59Z" fill="white"/>
<path d="M43.9396 34.9664H8.67275V9.3087H57.2477L57.2729 1.80908H0V73.6745H8.67275V42.3571H43.9008L43.9396 34.9664Z" fill="white"/>
<path d="M176.538 66.3819C188.18 66.3819 195.428 61.5573 195.428 53.3506C195.428 45.5442 188.395 41.0255 174.994 41.0255H152.312V66.3819H176.538ZM173.459 33.8381C183.896 33.8381 191.143 29.4266 191.143 20.8005C191.143 13.7157 185.101 9.10174 174.115 9.10174H152.312V33.8381H173.459ZM143.738 1.80908H174.886C183.672 1.80908 190.706 4.06115 194.993 8.17495C198.172 11.2603 199.929 15.0455 199.929 19.8819C199.929 29.226 193.775 34.0451 187.74 36.5123C196.858 39.0721 203.079 43.4863 203.079 53.5448C203.079 65.8627 193.122 73.6691 176.312 73.6691H143.738V1.80908Z" fill="white"/>
<path d="M527.829 54.8775C522.101 62.3499 512.749 67.2371 502.159 67.2371C484.684 67.2371 470.523 53.9898 470.523 37.668C470.523 21.3262 484.684 8.09336 502.159 8.09336C513.033 8.09336 522.593 13.2284 528.293 21.0275L535 16.8547C527.873 7.00863 515.848 0.535645 502.159 0.535645C480.228 0.535645 462.432 17.1606 462.432 37.668C462.432 58.1726 480.228 74.7885 502.159 74.7885C515.533 74.7885 527.332 68.6232 534.51 59.1574L527.829 54.8775Z" fill="white"/>
</svg>
