<svg width="236" height="52" viewBox="0 0 236 52" fill="none" xmlns="http://www.w3.org/2000/svg">
<path d="M98.6104 0V32.5008H122.247V29.1574H102.261V17.7793H119.932V14.4392H102.261V3.34256H122.015V0H98.6104Z" fill="black"/>
<path d="M166.567 0V32.5008H185.772V29.1091H170.168V0H166.567Z" fill="black"/>
<path d="M197.59 0H193.158V32.5008H197.59V0Z" fill="black"/>
<path d="M39.1713 0L24.7451 32.5008H28.5782L32.5076 23.929H49.3486L53.2261 32.5008H57.2459L42.8218 0H39.1713ZM40.9499 4.0977L47.8802 20.6386H33.9706L40.9499 4.0977Z" fill="black"/>
<path d="M144.275 16.5759H135.004V3.38859H144.325C149.893 3.38859 153.76 5.8038 153.76 9.79794C153.76 14.0704 149.453 16.5759 144.275 16.5759ZM157.546 32.5008L150.938 18.7617C154.564 17.083 157.703 13.8836 157.703 9.74703C157.703 7.10603 156.717 4.82959 155.04 3.25353C152.871 1.20575 148.856 0 144.619 0H131.111V32.5008H135.004V19.8718H146.252L147.31 19.8672L153.353 32.5008H157.546Z" fill="black"/>
<path d="M20.3755 14.9952H4.91092V3.39166H26.2111L26.2221 0H1.10791V32.5008H4.91092V18.3376H20.3585L20.3755 14.9952Z" fill="black"/>
<path d="M78.514 29.2049C83.441 29.2049 86.5086 27.0229 86.5086 23.3111C86.5086 19.7805 83.5319 17.7368 77.8603 17.7368H68.261V29.2049H78.514ZM77.2107 14.4861C81.6278 14.4861 84.695 12.4908 84.695 8.58942C84.695 5.38512 82.1382 3.29832 77.4884 3.29832H68.261V14.4861H77.2107ZM64.6323 0H77.8148C81.5332 0 84.5099 1.01856 86.3243 2.87915C87.6697 4.27459 88.4134 5.98656 88.4134 8.17395C88.4134 12.4001 85.809 14.5797 83.2546 15.6955C87.1139 16.8533 89.7466 18.8498 89.7466 23.399C89.7466 28.9701 85.5326 32.5008 78.4181 32.5008H64.6323V0Z" fill="black"/>
<path d="M232.788 23.7857C230.223 27.0564 226.034 29.1955 221.292 29.1955C213.465 29.1955 207.122 23.3971 207.122 16.253C207.122 9.10011 213.465 3.30805 221.292 3.30805C226.161 3.30805 230.443 5.55566 232.996 8.96939L236 7.14293C232.808 2.83325 227.422 0 221.292 0C211.469 0 203.499 7.27683 203.499 16.253C203.499 25.2279 211.469 32.5008 221.292 32.5008C227.281 32.5008 232.565 29.8022 235.781 25.659L232.788 23.7857Z" fill="black"/>
<path d="M0 51.2605H6.31777C8.53422 51.2605 9.70353 49.8474 9.70353 48.0811C9.70353 46.5973 8.70874 45.3786 7.46962 45.1843C8.56912 44.9546 9.47665 43.9655 9.47665 42.4818C9.47665 40.9097 8.34224 39.479 6.12579 39.479H0V51.2605ZM2.47824 44.2128V41.6162H5.58476C6.42248 41.6162 6.94605 42.1815 6.94605 42.9057C6.94605 43.6652 6.42248 44.2128 5.58476 44.2128H2.47824ZM2.47824 49.1232V46.3501H5.67203C6.64936 46.3501 7.17293 46.9859 7.17293 47.7278C7.17293 48.5757 6.61446 49.1232 5.67203 49.1232H2.47824Z" fill="black"/>
<path d="M11.9215 51.2605H20.159V49.0879H14.3997V46.3501H20.0368V44.1951H14.3997V41.6339H20.159V39.479H11.9215V51.2605Z" fill="black"/>
<path d="M30.506 51.2605H32.9842V46.4384L37.4346 39.479H34.6073L31.7451 44.2128L28.848 39.479H26.0207L30.506 46.4384V51.2605Z" fill="black"/>
<path d="M37.6002 45.3786C37.6002 48.9289 40.1657 51.4725 43.6736 51.4725C47.199 51.4725 49.7645 48.9289 49.7645 45.3786C49.7645 41.8282 47.199 39.2847 43.6736 39.2847C40.1657 39.2847 37.6002 41.8282 37.6002 45.3786ZM47.2165 45.3786C47.2165 47.5688 45.8203 49.2469 43.6736 49.2469C41.527 49.2469 40.1483 47.5688 40.1483 45.3786C40.1483 43.1706 41.527 41.5103 43.6736 41.5103C45.8203 41.5103 47.2165 43.1706 47.2165 45.3786Z" fill="black"/>
<path d="M51.8527 46.562C51.8527 49.4588 53.5107 51.4725 57.0709 51.4725C60.5963 51.4725 62.2543 49.4765 62.2543 46.5444V39.479H59.7412V46.4737C59.7412 48.1164 58.8511 49.2469 57.0709 49.2469C55.2559 49.2469 54.3658 48.1164 54.3658 46.4737V39.479H51.8527V46.562Z" fill="black"/>
<path d="M71.4786 51.2605H74.3233L71.7055 46.774C72.962 46.4737 74.2535 45.3609 74.2535 43.2766C74.2535 41.0863 72.7701 39.479 70.3442 39.479H64.899V51.2605H67.3773V47.0389H69.1923L71.4786 51.2605ZM71.7229 43.2589C71.7229 44.2481 70.9725 44.884 69.9777 44.884H67.3773V41.6339H69.9777C70.9725 41.6339 71.7229 42.2698 71.7229 43.2589Z" fill="black"/>
<path d="M81.277 51.2605H87.5948C89.8112 51.2605 90.9805 49.8474 90.9805 48.0811C90.9805 46.5973 89.9857 45.3786 88.7466 45.1843C89.8461 44.9546 90.7536 43.9655 90.7536 42.4818C90.7536 40.9097 89.6192 39.479 87.4028 39.479H81.277V51.2605ZM83.7552 44.2128V41.6162H86.8618C87.6995 41.6162 88.2231 42.1815 88.2231 42.9057C88.2231 43.6652 87.6995 44.2128 86.8618 44.2128H83.7552ZM83.7552 49.1232V46.3501H86.949C87.9264 46.3501 88.4499 46.9859 88.4499 47.7278C88.4499 48.5757 87.8915 49.1232 86.949 49.1232H83.7552Z" fill="black"/>
<path d="M93.1985 51.2605H101.436V49.0879H95.6767V46.3501H101.314V44.1951H95.6767V41.6339H101.436V39.479H93.1985V51.2605Z" fill="black"/>
<path d="M102.92 49.6001C104.019 50.7129 105.625 51.4725 107.859 51.4725C111 51.4725 112.518 49.8474 112.518 47.6925C112.518 45.0783 110.075 44.4954 108.155 44.0538C106.811 43.7359 105.834 43.4886 105.834 42.6937C105.834 41.9872 106.428 41.4926 107.544 41.4926C108.679 41.4926 109.935 41.8989 110.878 42.782L112.257 40.945C111.105 39.8676 109.569 39.3023 107.719 39.3023C104.979 39.3023 103.304 40.892 103.304 42.8527C103.304 45.4845 105.747 46.0144 107.649 46.456C108.993 46.774 110.005 47.0743 110.005 47.9574C110.005 48.6286 109.342 49.2822 107.981 49.2822C106.375 49.2822 105.101 48.558 104.281 47.6925L102.92 49.6001Z" fill="black"/>
<path d="M117.104 51.2605H119.6V41.6869H122.986V39.479H113.701V41.6869H117.104V51.2605Z" fill="black"/>
</svg>
